<svg version="1.1" xmlns="http://www.w3.org/2000/svg" xmlns:xlink="http://www.w3.org/1999/xlink" width="18.25" height="51" viewBox="0,0,18.25,51"><g transform="translate(-230.875,-154.5)"><g data-paper-data="{&quot;isPaintingLayer&quot;:true}" fill="#fff660" stroke="#b2ad44" stroke-linecap="butt" stroke-linejoin="miter" stroke-miterlimit="10" stroke-dasharray="" stroke-dashoffset="0" style="mix-blend-mode: normal"><path d="M240,203c-3.65889,0 -6.625,-10.29745 -6.625,-23c0,-12.70255 2.96611,-23 6.625,-23c3.65889,0 6.625,10.29745 6.625,23c0,12.70255 -2.96611,23 -6.625,23z" data-paper-data="{&quot;index&quot;:null}" fill-rule="nonzero" stroke-width="5"/><path d="M239.78171,170.32323c0.28887,-0.17442 0.59031,-0.26163 0.94199,-0.17442c0.59032,0.08721 1.15551,0.82848 1.15551,0.82848l1.51975,-3.44474c0.05024,-0.08721 0.11304,0.0436 0.10048,0.21802l-0.26376,7.80517c-0.07535,-0.34883 1.33136,5.58136 0.4396,10.55225c-0.89175,4.97089 -2.7883,7.19471 -5.14957,5.58135c-2.36127,-1.61336 -2.91391,-6.32262 -2.76319,-8.80807c0.15071,-2.48545 1.04247,-3.40114 1.04247,-3.40114c0,0 0.01255,-1.96219 0.41447,-4.36043c0.23863,-1.43895 1.04247,-3.48835 1.04247,-3.48835l0.32656,-4.66566c0.01257,-0.17441 0.07537,-0.21802 0.11305,-0.13081z" data-paper-data="{&quot;index&quot;:null}" fill-rule="evenodd" stroke-width="3.5"/></g></g></svg>