<svg version="1.1" xmlns="http://www.w3.org/2000/svg" xmlns:xlink="http://www.w3.org/1999/xlink" width="45.5" height="51" viewBox="0,0,45.5,51"><g transform="translate(-217.25,-154.5)"><g data-paper-data="{&quot;isPaintingLayer&quot;:true}" fill="#fff660" stroke="#b2ad44" stroke-linecap="butt" stroke-linejoin="miter" stroke-miterlimit="10" stroke-dasharray="" stroke-dashoffset="0" style="mix-blend-mode: normal"><path d="M219.75,180c0,-12.70255 9.06623,-23 20.25,-23c11.18377,0 20.25,10.29745 20.25,23c0,12.70255 -9.06623,23 -20.25,23c-11.18377,0 -20.25,-10.29745 -20.25,-23z" fill-rule="nonzero" stroke-width="5"/><path d="M243.96887,166.83488c0.11517,-0.08721 0.30712,-0.0436 0.34552,0.13081l0.99816,4.66566c0,0 2.45701,2.0494 3.18643,3.48835c1.22851,2.39824 1.26689,4.36043 1.26689,4.36043c0,0 2.72575,0.91569 3.18643,3.40114c0.46069,2.48545 -1.22851,7.19471 -8.44597,8.80807c-7.21746,1.61336 -13.01447,-0.61046 -15.74021,-5.58135c-2.72575,-4.97089 1.57402,-10.90108 1.34368,-10.55225l-0.80621,-7.80517c-0.03839,-0.17442 0.15357,-0.30523 0.30712,-0.21802l4.64528,3.44474c0,0 1.72758,-0.74127 3.53195,-0.82848c1.07494,-0.08721 1.99632,0 2.8793,0.17442z" fill-rule="evenodd" stroke-width="3.5"/></g></g></svg>