<svg version="1.1" xmlns="http://www.w3.org/2000/svg" xmlns:xlink="http://www.w3.org/1999/xlink" width="18.25" height="51" viewBox="0,0,18.25,51"><g transform="translate(-230.875,-154.5)"><g data-paper-data="{&quot;isPaintingLayer&quot;:true}" fill="#fff660" stroke="#b2ad44" stroke-linecap="butt" stroke-linejoin="miter" stroke-miterlimit="10" stroke-dasharray="" stroke-dashoffset="0" style="mix-blend-mode: normal"><path d="M233.375,180c0,-12.70255 2.96611,-23 6.625,-23c3.65889,0 6.625,10.29745 6.625,23c0,12.70255 -2.96611,23 -6.625,23c-3.65889,0 -6.625,-10.29745 -6.625,-23z" fill-rule="nonzero" stroke-width="5"/><path d="M241.29846,166.83488c0.03768,-0.08721 0.10048,-0.0436 0.11305,0.13081l0.32656,4.66566c0,0 0.80384,2.0494 1.04247,3.48835c0.40192,2.39824 0.41447,4.36043 0.41447,4.36043c0,0 0.89176,0.91569 1.04247,3.40114c0.15072,2.48545 -0.40192,7.19471 -2.76319,8.80807c-2.36127,1.61336 -4.25782,-0.61046 -5.14957,-5.58135c-0.89176,-4.97089 0.51495,-10.90108 0.4396,-10.55225l-0.26376,-7.80517c-0.01256,-0.17442 0.05024,-0.30523 0.10048,-0.21802l1.51975,3.44474c0,0 0.56519,-0.74127 1.15551,-0.82848c0.35168,-0.08721 0.65312,0 0.94199,0.17442z" fill-rule="evenodd" stroke-width="3.5"/></g></g></svg>