<svg version="1.1" xmlns="http://www.w3.org/2000/svg" xmlns:xlink="http://www.w3.org/1999/xlink" width="51" height="51" viewBox="0,0,51,51"><g transform="translate(-214.5,-154.5)"><g data-paper-data="{&quot;isPaintingLayer&quot;:true}" fill="#fff660" stroke="#b2ad44" stroke-linecap="butt" stroke-linejoin="miter" stroke-miterlimit="10" stroke-dasharray="" stroke-dashoffset="0" style="mix-blend-mode: normal"><path d="M217,180c0,-12.70255 10.29745,-23 23,-23c12.70255,0 23,10.29745 23,23c0,12.70255 -10.29745,23 -23,23c-12.70255,0 -23,-10.29745 -23,-23z" fill-rule="nonzero" stroke-width="5"/><path d="M244.50785,166.83488c0.13081,-0.08721 0.34883,-0.0436 0.39244,0.13081l1.13371,4.66566c0,0 2.79068,2.0494 3.61916,3.48835c1.39534,2.39824 1.43894,4.36043 1.43894,4.36043c0,0 3.09591,0.91569 3.61916,3.40114c0.52325,2.48545 -1.39534,7.19471 -9.59295,8.80807c-8.19761,1.61336 -14.78187,-0.61046 -17.87777,-5.58135c-3.09591,-4.97089 1.78778,-10.90108 1.52615,-10.55225l-0.91569,-7.80517c-0.0436,-0.17442 0.17442,-0.30523 0.34883,-0.21802l5.27612,3.44474c0,0 1.96219,-0.74127 4.0116,-0.82848c1.22092,-0.08721 2.26743,0 3.27032,0.17442z" fill-rule="evenodd" stroke-width="3.5"/></g></g></svg>