<svg version="1.1" xmlns="http://www.w3.org/2000/svg" xmlns:xlink="http://www.w3.org/1999/xlink" width="39" height="51" viewBox="0,0,39,51"><g transform="translate(-220.5,-154.5)"><g data-paper-data="{&quot;isPaintingLayer&quot;:true}" fill="#fff660" stroke="#b2ad44" stroke-linecap="butt" stroke-linejoin="miter" stroke-miterlimit="10" stroke-dasharray="" stroke-dashoffset="0" style="mix-blend-mode: normal"><path d="M240,203c-9.38884,0 -17,-10.29745 -17,-23c0,-12.70255 7.61116,-23 17,-23c9.38884,0 17,10.29745 17,23c0,12.70255 -7.61116,23 -17,23z" data-paper-data="{&quot;index&quot;:null}" fill-rule="nonzero" stroke-width="5"/><path d="M239.43984,170.32323c0.74127,-0.17442 1.51477,-0.26163 2.41719,-0.17442c1.51478,0.08721 2.96509,0.82848 2.96509,0.82848l3.89974,-3.44474c0.12891,-0.08721 0.29006,0.0436 0.25783,0.21802l-0.67682,7.80517c-0.19337,-0.34883 3.41631,5.58136 1.12803,10.55225c-2.28827,4.97089 -7.1549,7.19471 -13.214,5.58135c-6.0591,-1.61336 -7.47719,-6.32262 -7.09044,-8.80807c0.38675,-2.48545 2.67503,-3.40114 2.67503,-3.40114c0,0 0.03222,-1.96219 1.06356,-4.36043c0.61235,-1.43895 2.67503,-3.48835 2.67503,-3.48835l0.83796,-4.66566c0.03224,-0.17441 0.19338,-0.21802 0.29007,-0.13081z" data-paper-data="{&quot;index&quot;:null}" fill-rule="evenodd" stroke-width="3.5"/></g></g></svg>