<svg version="1.1" xmlns="http://www.w3.org/2000/svg" xmlns:xlink="http://www.w3.org/1999/xlink" width="31.75" height="51" viewBox="0,0,31.75,51"><g transform="translate(-224.125,-154.5)"><g data-paper-data="{&quot;isPaintingLayer&quot;:true}" fill="#fff660" stroke="#b2ad44" stroke-linecap="butt" stroke-linejoin="miter" stroke-miterlimit="10" stroke-dasharray="" stroke-dashoffset="0" style="mix-blend-mode: normal"><path d="M240,203c-7.38681,0 -13.375,-10.29745 -13.375,-23c0,-12.70255 5.98819,-23 13.375,-23c7.38681,0 13.375,10.29745 13.375,23c0,12.70255 -5.98819,23 -13.375,23z" data-paper-data="{&quot;index&quot;:null}" fill-rule="nonzero" stroke-width="5"/><path d="M239.55929,170.32323c0.58321,-0.17442 1.19177,-0.26163 1.90176,-0.17442c1.19178,0.08721 2.33283,0.82848 2.33283,0.82848l3.06818,-3.44474c0.10142,-0.08721 0.22821,0.0436 0.20285,0.21802l-0.5325,7.80517c-0.15214,-0.34883 2.68783,5.58136 0.88749,10.55225c-1.80033,4.97089 -5.62922,7.19471 -10.39631,5.58135c-4.76709,-1.61336 -5.88279,-6.32262 -5.57851,-8.80807c0.30428,-2.48545 2.10462,-3.40114 2.10462,-3.40114c0,0 0.02535,-1.96219 0.83677,-4.36043c0.48178,-1.43895 2.10462,-3.48835 2.10462,-3.48835l0.65928,-4.66566c0.02537,-0.17441 0.15215,-0.21802 0.22822,-0.13081z" data-paper-data="{&quot;index&quot;:null}" fill-rule="evenodd" stroke-width="3.5"/></g></g></svg>