<svg version="1.1" xmlns="http://www.w3.org/2000/svg" xmlns:xlink="http://www.w3.org/1999/xlink" width="9.75" height="51" viewBox="0,0,9.75,51"><g transform="translate(-235.125,-154.5)"><g data-paper-data="{&quot;isPaintingLayer&quot;:true}" fill="#fff660" stroke="#b2ad44" stroke-linecap="butt" stroke-linejoin="miter" stroke-miterlimit="10" stroke-dasharray="" stroke-dashoffset="0" style="mix-blend-mode: normal"><path d="M237.625,180c0,-12.70255 1.06332,-23 2.375,-23c1.31168,0 2.375,10.29745 2.375,23c0,12.70255 -1.06332,23 -2.375,23c-1.31168,0 -2.375,-10.29745 -2.375,-23z" fill-rule="nonzero" stroke-width="5"/><path d="M240.71549,166.33488c0.01351,-0.08721 0.03602,-0.0436 0.04053,0.13081l0.11707,4.66566c0,0 0.28817,2.0494 0.37372,3.48835c0.14408,2.39824 0.14858,4.36043 0.14858,4.36043c0,0 0.31969,0.91569 0.37372,3.40114c0.05403,2.48545 -0.14408,7.19471 -0.99058,8.80807c-0.84649,1.61336 -1.52639,-0.61046 -1.84607,-5.58135c-0.31969,-4.97089 0.1846,-10.90108 0.15759,-10.55225l-0.09456,-7.80517c-0.0045,-0.17442 0.01801,-0.30523 0.03602,-0.21802l0.54482,3.44474c0,0 0.20262,-0.74127 0.41424,-0.82848c0.12607,-0.08721 0.23414,0 0.33769,0.17442z" fill-rule="evenodd" stroke-width="3.5"/></g></g></svg>