<svg version="1.1" xmlns="http://www.w3.org/2000/svg" xmlns:xlink="http://www.w3.org/1999/xlink" width="31.75" height="51" viewBox="0,0,31.75,51"><g transform="translate(-224.125,-154.5)"><g data-paper-data="{&quot;isPaintingLayer&quot;:true}" fill="#fff660" stroke="#b2ad44" stroke-linecap="butt" stroke-linejoin="miter" stroke-miterlimit="10" stroke-dasharray="" stroke-dashoffset="0" style="mix-blend-mode: normal"><path d="M226.625,180c0,-12.70255 5.98819,-23 13.375,-23c7.38681,0 13.375,10.29745 13.375,23c0,12.70255 -5.98819,23 -13.375,23c-7.38681,0 -13.375,-10.29745 -13.375,-23z" fill-rule="nonzero" stroke-width="5"/><path d="M242.62141,166.83488c0.07607,-0.08721 0.20285,-0.0436 0.22822,0.13081l0.65928,4.66566c0,0 1.62284,2.0494 2.10462,3.48835c0.81142,2.39824 0.83677,4.36043 0.83677,4.36043c0,0 1.80034,0.91569 2.10462,3.40114c0.30428,2.48545 -0.81142,7.19471 -5.57851,8.80807c-4.76709,1.61336 -8.59598,-0.61046 -10.39631,-5.58135c-1.80034,-4.97089 1.03963,-10.90108 0.88749,-10.55225l-0.5325,-7.80517c-0.02536,-0.17442 0.10143,-0.30523 0.20285,-0.21802l3.06818,3.44474c0,0 1.14105,-0.74127 2.33283,-0.82848c0.70999,-0.08721 1.31855,0 1.90176,0.17442z" fill-rule="evenodd" stroke-width="3.5"/></g></g></svg>