<svg version="1.1" xmlns="http://www.w3.org/2000/svg" xmlns:xlink="http://www.w3.org/1999/xlink" width="39" height="51" viewBox="0,0,39,51"><g transform="translate(-220.5,-154.5)"><g data-paper-data="{&quot;isPaintingLayer&quot;:true}" fill="#fff660" stroke="#b2ad44" stroke-linecap="butt" stroke-linejoin="miter" stroke-miterlimit="10" stroke-dasharray="" stroke-dashoffset="0" style="mix-blend-mode: normal"><path d="M223,180c0,-12.70255 7.61116,-23 17,-23c9.38884,0 17,10.29745 17,23c0,12.70255 -7.61116,23 -17,23c-9.38884,0 -17,-10.29745 -17,-23z" fill-rule="nonzero" stroke-width="5"/><path d="M243.33189,166.83488c0.09669,-0.08721 0.25783,-0.0436 0.29007,0.13081l0.83796,4.66566c0,0 2.06268,2.0494 2.67503,3.48835c1.03134,2.39824 1.06356,4.36043 1.06356,4.36043c0,0 2.28828,0.91569 2.67503,3.40114c0.38675,2.48545 -1.03134,7.19471 -7.09044,8.80807c-6.0591,1.61336 -10.92573,-0.61046 -13.214,-5.58135c-2.28828,-4.97089 1.3214,-10.90108 1.12803,-10.55225l-0.67682,-7.80517c-0.03223,-0.17442 0.12892,-0.30523 0.25783,-0.21802l3.89974,3.44474c0,0 1.45031,-0.74127 2.96509,-0.82848c0.90242,-0.08721 1.67592,0 2.41719,0.17442z" fill-rule="evenodd" stroke-width="3.5"/></g></g></svg>