<svg version="1.1" xmlns="http://www.w3.org/2000/svg" xmlns:xlink="http://www.w3.org/1999/xlink" width="51" height="51" viewBox="0,0,51,51"><g transform="translate(-214.5,-154.5)"><g data-paper-data="{&quot;isPaintingLayer&quot;:true}" fill="#fff660" stroke="#b2ad44" stroke-linecap="butt" stroke-linejoin="miter" stroke-miterlimit="10" stroke-dasharray="" stroke-dashoffset="0" style="mix-blend-mode: normal"><path d="M240,203c-12.70255,0 -23,-10.29745 -23,-23c0,-12.70255 10.29745,-23 23,-23c12.70255,0 23,10.29745 23,23c0,12.70255 -10.29745,23 -23,23z" data-paper-data="{&quot;index&quot;:null}" fill-rule="nonzero" stroke-width="5"/><path d="M239.24213,170.32323c1.00289,-0.17442 2.0494,-0.26163 3.27032,-0.17442c2.04941,0.08721 4.0116,0.82848 4.0116,0.82848l5.27612,-3.44474c0.17441,-0.08721 0.39243,0.0436 0.34883,0.21802l-0.91569,7.80517c-0.26163,-0.34883 4.62206,5.58136 1.52615,10.55225c-3.0959,4.97089 -9.68016,7.19471 -17.87777,5.58135c-8.19761,-1.61336 -10.1162,-6.32262 -9.59295,-8.80807c0.52325,-2.48545 3.61916,-3.40114 3.61916,-3.40114c0,0 0.0436,-1.96219 1.43894,-4.36043c0.82848,-1.43895 3.61916,-3.48835 3.61916,-3.48835l1.13371,-4.66566c0.04361,-0.17441 0.26163,-0.21802 0.39244,-0.13081z" data-paper-data="{&quot;index&quot;:null}" fill-rule="evenodd" stroke-width="3.5"/></g></g></svg>