<svg version="1.1" xmlns="http://www.w3.org/2000/svg" xmlns:xlink="http://www.w3.org/1999/xlink" width="26.25" height="51" viewBox="0,0,26.25,51"><g transform="translate(-226.875,-154.5)"><g data-paper-data="{&quot;isPaintingLayer&quot;:true}" fill="#fff660" stroke="#b2ad44" stroke-linecap="butt" stroke-linejoin="miter" stroke-miterlimit="10" stroke-dasharray="" stroke-dashoffset="0" style="mix-blend-mode: normal"><path d="M229.375,180c0,-12.70255 4.75697,-23 10.625,-23c5.86803,0 10.625,10.29745 10.625,23c0,12.70255 -4.75697,23 -10.625,23c-5.86803,0 -10.625,-10.29745 -10.625,-23z" fill-rule="nonzero" stroke-width="5"/><path d="M242.08243,166.83488c0.06043,-0.08721 0.16114,-0.0436 0.1813,0.13081l0.52373,4.66566c0,0 1.28917,2.0494 1.67189,3.48835c0.64459,2.39824 0.66472,4.36043 0.66472,4.36043c0,0 1.43018,0.91569 1.67189,3.40114c0.24172,2.48545 -0.64459,7.19471 -4.43153,8.80807c-3.78694,1.61336 -6.82858,-0.61046 -8.25875,-5.58135c-1.43018,-4.97089 0.82587,-10.90108 0.70502,-10.55225l-0.42301,-7.80517c-0.02015,-0.17442 0.08058,-0.30523 0.16114,-0.21802l2.43734,3.44474c0,0 0.90644,-0.74127 1.85318,-0.82848c0.56401,-0.08721 1.04745,0 1.51074,0.17442z" fill-rule="evenodd" stroke-width="3.5"/></g></g></svg>