<svg version="1.1" xmlns="http://www.w3.org/2000/svg" xmlns:xlink="http://www.w3.org/1999/xlink" width="45.5" height="51" viewBox="0,0,45.5,51"><g transform="translate(-217.25,-154.5)"><g data-paper-data="{&quot;isPaintingLayer&quot;:true}" fill="#fff660" stroke="#b2ad44" stroke-linecap="butt" stroke-linejoin="miter" stroke-miterlimit="10" stroke-dasharray="" stroke-dashoffset="0" style="mix-blend-mode: normal"><path d="M240,203c-11.18377,0 -20.25,-10.29745 -20.25,-23c0,-12.70255 9.06623,-23 20.25,-23c11.18377,0 20.25,10.29745 20.25,23c0,12.70255 -9.06623,23 -20.25,23z" data-paper-data="{&quot;index&quot;:null}" fill-rule="nonzero" stroke-width="5"/><path d="M239.33276,170.32323c0.88298,-0.17442 1.80436,-0.26163 2.8793,-0.17442c1.80437,0.08721 3.53195,0.82848 3.53195,0.82848l4.64528,-3.44474c0.15355,-0.08721 0.34551,0.0436 0.30712,0.21802l-0.80621,7.80517c-0.23034,-0.34883 4.06943,5.58136 1.34368,10.55225c-2.72574,4.97089 -8.52275,7.19471 -15.74021,5.58135c-7.21746,-1.61336 -8.90666,-6.32262 -8.44597,-8.80807c0.46068,-2.48545 3.18643,-3.40114 3.18643,-3.40114c0,0 0.03838,-1.96219 1.26689,-4.36043c0.72942,-1.43895 3.18643,-3.48835 3.18643,-3.48835l0.99816,-4.66566c0.0384,-0.17441 0.23035,-0.21802 0.34552,-0.13081z" data-paper-data="{&quot;index&quot;:null}" fill-rule="evenodd" stroke-width="3.5"/></g></g></svg>