<svg version="1.1" xmlns="http://www.w3.org/2000/svg" xmlns:xlink="http://www.w3.org/1999/xlink" width="26.25" height="51" viewBox="0,0,26.25,51"><g transform="translate(-226.875,-154.5)"><g data-paper-data="{&quot;isPaintingLayer&quot;:true}" fill="#fff660" stroke="#b2ad44" stroke-linecap="butt" stroke-linejoin="miter" stroke-miterlimit="10" stroke-dasharray="" stroke-dashoffset="0" style="mix-blend-mode: normal"><path d="M240,203c-5.86803,0 -10.625,-10.29745 -10.625,-23c0,-12.70255 4.75697,-23 10.625,-23c5.86803,0 10.625,10.29745 10.625,23c0,12.70255 -4.75697,23 -10.625,23z" data-paper-data="{&quot;index&quot;:null}" fill-rule="nonzero" stroke-width="5"/><path d="M239.64991,170.32323c0.46329,-0.17442 0.94673,-0.26163 1.51074,-0.17442c0.94674,0.08721 1.85318,0.82848 1.85318,0.82848l2.43734,-3.44474c0.08056,-0.08721 0.18129,0.0436 0.16114,0.21802l-0.42301,7.80517c-0.12085,-0.34883 2.1352,5.58136 0.70502,10.55225c-1.43017,4.97089 -4.47181,7.19471 -8.25875,5.58135c-3.78694,-1.61336 -4.67325,-6.32262 -4.43153,-8.80807c0.24171,-2.48545 1.67189,-3.40114 1.67189,-3.40114c0,0 0.02013,-1.96219 0.66472,-4.36043c0.38272,-1.43895 1.67189,-3.48835 1.67189,-3.48835l0.52373,-4.66566c0.02016,-0.17441 0.12087,-0.21802 0.1813,-0.13081z" data-paper-data="{&quot;index&quot;:null}" fill-rule="evenodd" stroke-width="3.5"/></g></g></svg>