<svg version="1.1" xmlns="http://www.w3.org/2000/svg" xmlns:xlink="http://www.w3.org/1999/xlink" width="108.36256" height="91.86358" viewBox="0,0,108.36256,91.86358"><g transform="translate(-185.36892,-133.6749)"><g data-paper-data="{&quot;isPaintingLayer&quot;:true}" fill-rule="nonzero" stroke-miterlimit="10" stroke-dasharray="" stroke-dashoffset="0" style="mix-blend-mode: normal"><g><path d="M279.00705,144.77495l4.06928,1.73921l-2.30496,3.72835l5.78725,1.74363l-9.73333,3.00151l-5.96415,-12.79295l11.13019,-2.0794z" data-paper-data="{&quot;index&quot;:null}" fill="#ff0000" stroke="none" stroke-width="NaN" stroke-linecap="butt" stroke-linejoin="miter"/><path d="M282.18061,155.8526l-45.46172,17.26444l-7.93232,-20.88782l45.46172,-17.26444z" data-paper-data="{&quot;index&quot;:null}" fill="#0027ff" stroke="#000000" stroke-width="2" stroke-linecap="butt" stroke-linejoin="miter"/><path d="M282.49557,179.17638v0c0.5964,0 1.0084,0.065 1.1941,0.0995c3.4107,2.5588 9.2727,8.1329 8.9682,10.2253c-0.0352,0.2222 -0.1201,0.7948 -2.263,0.7948c-0.6329,0 -7.9411,-1.1889 -8.3033,-1.1185c-0.9103,-0.9501 -4.0038,-4.4456 -3.3629,-7.5007c0.4425,-2.1176 2.4029,-2.5004 3.7669,-2.5004z" data-paper-data="{&quot;index&quot;:null}" fill="#ffc93e" stroke="#603813" stroke-width="2" stroke-linecap="butt" stroke-linejoin="miter"/><path d="M292.73608,170.70578v0c0.6031,0.5553 0.8963,1.2274 0.895,2.0553c0,1.0476 -1.9803,2.0102 -3.96,2.6219l-2.2655,0.8173c-2.4507,1.1437 -5.6451,2.4958 -5.7751,2.5721c-0.284,0.1645 -0.5188,0.2222 -0.7125,0.2222c-0.221,0 -0.3928,-0.0743 -0.5301,-0.1539c-1.3594,-0.7855 -2.2603,-4.0767 -2.2835,-5.9807c0.1864,-0.5573 1.4264,-3.8459 4.9982,-3.8459c0.0637,0 0.2355,0.0047 0.2355,0.0047l0.0405,-0.0027c0.0172,-0.002 0.552,-0.0431 1.3567,-0.0431c1.8967,0 6.3549,0.2163 8.0008,1.7328z" data-paper-data="{&quot;index&quot;:null}" fill="#ffc93e" stroke="#603813" stroke-width="2" stroke-linecap="butt" stroke-linejoin="miter"/><path d="M266.84148,213.59658v0c6.3894,3.5958 8.6596,5.6438 7.4018,8.7565c-0.4923,1.2181 -1.5265,2.0593 -2.9861,2.4354c-3.5725,0.9169 -10.6631,-0.7271 -15.719,-4.8383c-3.4518,-2.8063 -9.9089,-14.0552 -9.3218,-16.7719c0.0465,-0.2256 0.2209,-0.5454 0.3304,-0.5759c0.406,-0.3171 1.1418,-0.4232 1.9133,-0.203c2.1395,0.6117 5.1694,2.4567 8.0971,4.5783c2.2728,1.6499 4.8549,3.5201 7.6751,5.1402z" data-paper-data="{&quot;index&quot;:null}" fill="#ffc93e" stroke="#603813" stroke-width="1.5" stroke-linecap="butt" stroke-linejoin="miter"/><path d="M217.00668,169.31858v0c2.0533,-3.7715 -1.6446,-7.0196 -4.9073,-9.8836c-2.673,-2.3479 -6.0902,-5.2483 -5.3047,-7.2771c0.2129,-0.5486 0.5493,-0.9175 1.0283,-1.1278c1.7414,-0.7636 5.9601,1.2247 8.6311,2.2749c2.844,1.1165 4.8987,1.9226 5.7173,0.6939c0.7875,-1.1815 -0.4067,-2.8832 -1.2519,-4.6519c-1.0409,-2.1813 -2.1262,-4.3414 -1.1059,-4.9458c0.9209,-0.5447 4.8397,1.8669 7.5252,3.3609c4.498,2.5024 9.5951,5.3379 13.2611,3.8313l1.9876,-1.1935c3.1008,-2.0772 8.7432,-7.0834 18.6534,-6.1247c11.369,1.0999 19.3029,11.988 19.3812,12.0862l0.3171,0.4007l0.4783,-0.1745c3.0491,-1.1093 7.8211,-1.7793 9.8352,-0.8717c0.8446,0.3794 1.3096,0.8445 1.4788,1.4774c0.5088,1.898 -1.1431,1.778 -2.9144,3.1247c-8.8235,6.7132 -8.3823,11.9608 -8.3823,11.9608l0.0517,0.1798c0.9912,3.343 1.4954,6.8624 1.4954,10.4608c0,19.4011 -11.6397,33.8955 -28.1748,33.8955c-7.8092,0 -16.143,-4.1225 -23.0167,-9.6647l-0.0511,-0.0412l-0.0597,-0.0298c0,0 -0.1506,-0.0809 -0.2661,-0.13c-0.4743,-0.154 -11.6596,-3.7431 -15.38,-4.431l-1.6739,-0.2893c-3.128,-0.5254 -11.5713,-1.8721 -11.5402,-3.9208c0.0226,-1.3593 4.6088,-1.8052 7.1431,-2.2158c2.7585,-0.4472 4.0707,-0.2614 5.243,-1.6672c1.4323,-1.7229 1.8198,-4.218 1.7707,-4.2645c-2.7904,-2.6384 -7.021,-6.0875 -7.021,-6.0875l-5.4945,-4.8237c-5.5521,-4.7322 -19.3274,-16.4051 -18.0025,-18.8485c0.684,-1.2631 7.9829,2.6232 12.3038,4.8025c7.904,3.9872 16.0753,8.1084 18.2447,4.1152z" data-paper-data="{&quot;index&quot;:null}" fill="#ffc93e" stroke="#603813" stroke-width="2" stroke-linecap="round" stroke-linejoin="round"/><g data-paper-data="{&quot;index&quot;:null}" stroke="none" stroke-width="0.66342" stroke-linecap="butt" stroke-linejoin="miter"><path d="M261.41738,178.06978c0,2.9834 -2.4182,5.4022 -5.4003,5.4022c-2.984,0 -5.4055,-2.4188 -5.4055,-5.4022c0.0013,-2.9841 2.4215,-5.4029 5.4055,-5.4029v0v0v0v0c2.9821,0 5.4003,2.4195 5.4003,5.4029z" fill="#ffffff"/><path d="M252.06848,178.79758c0,-1.0489 0.4259,-1.9996 1.1145,-2.6875c0.688,-0.6887 1.6387,-1.1146 2.6875,-1.1146c1.0489,0 1.9996,0.4259 2.6875,1.1146c0.6887,0.6879 1.1146,1.6386 1.1146,2.6875c0,1.0488 -0.4259,1.9995 -1.1146,2.6875c-0.6879,0.6886 -1.6386,1.1145 -2.6875,1.1145c-1.0488,0 -1.9995,-0.4259 -2.6875,-1.1145c-0.6886,-0.688 -1.1145,-1.6387 -1.1145,-2.6875z" fill="#603813"/></g><g data-paper-data="{&quot;index&quot;:null}" stroke="none" stroke-width="0.66342" stroke-linecap="butt" stroke-linejoin="miter"><path d="M261.41738,204.09778c0,2.9827 -2.4182,5.4022 -5.4003,5.4022c-2.984,0 -5.4055,-2.4188 -5.4055,-5.4022c0.0013,-2.9847 2.4215,-5.4036 5.4055,-5.4036v0v0v0v0c2.9821,0 5.4003,2.4189 5.4003,5.4036z" fill="#ffffff"/><path d="M259.67127,204.82358c0,2.0997 -1.7004,3.8027 -3.8008,3.8027c-2.0984,0 -3.802,-1.703 -3.802,-3.8027c0,-2.0998 1.703,-3.8014 3.802,-3.8014v0v0v0v0c2.0997,0 3.8008,1.7016 3.8008,3.8014z" fill="#603813"/></g><path d="M222.12944,147.09977c-0.1374,-1.30981 0.55303,-2.52503 1.99886,-3.51898c3.53819,-2.43052 12.54506,-4.15366 20.65034,-2.76065c5.53521,0.95119 19.33013,8.08774 20.22175,10.77705c0.07396,0.22177 0.06195,0.58598 -0.04905,0.66317c-0.27696,0.46672 -1.05308,0.89079 -2.05636,1.0413c-2.78418,0.41924 -7.28946,0.13645 -11.83316,-0.44204c-3.5384,-0.44572 -7.54038,-0.95536 -11.67802,-1.12855l-3.81012,-0.14983c-9.33041,-0.33017 -13.09311,-1.13628 -13.44425,-4.48147v0v0z" data-paper-data="{&quot;index&quot;:null}" fill="#ffc93e" stroke="#603813" stroke-width="2" stroke-linecap="butt" stroke-linejoin="miter"/><path d="M266.40028,192.70618c0,-0.5142 0.4578,-0.9805 1.1982,-1.3176c0.7397,-0.3376 1.762,-0.5466 2.8898,-0.5466c1.1278,0 2.1502,0.209 2.8899,0.5466c0.7404,0.3371 1.1981,0.8034 1.1981,1.3176c0,0.5141 -0.4577,0.9805 -1.1981,1.3175c-0.7397,0.3377 -1.7621,0.5467 -2.8899,0.5467c-1.1278,0 -2.1501,-0.209 -2.8898,-0.5467c-0.7404,-0.337 -1.1982,-0.8034 -1.1982,-1.3175z" data-paper-data="{&quot;index&quot;:null}" fill="#603813" stroke="none" stroke-width="0.66342" stroke-linecap="butt" stroke-linejoin="miter"/><path d="M249.53926,185.75245l-8.86829,-12.56341" data-paper-data="{&quot;index&quot;:null}" fill="none" stroke="#603813" stroke-width="1.5" stroke-linecap="round" stroke-linejoin="miter"/><path d="M249.29292,195.85245l-9.11463,9.60732" data-paper-data="{&quot;index&quot;:null}" fill="none" stroke="#603813" stroke-width="1.5" stroke-linecap="round" stroke-linejoin="miter"/><path d="M269.12537,159.53176l-14.02778,-3.96078l4.78595,-9.24183l9.24183,3.46569z" data-paper-data="{&quot;index&quot;:null}" fill="#ffc93e" stroke="none" stroke-width="0" stroke-linecap="butt" stroke-linejoin="miter"/></g></g></g></svg>