<svg version="1.1" xmlns="http://www.w3.org/2000/svg" xmlns:xlink="http://www.w3.org/1999/xlink" width="161.51175" height="124.37924" viewBox="0,0,161.51175,124.37924"><g transform="translate(-159.27973,-117.73131)"><g data-paper-data="{&quot;isPaintingLayer&quot;:true}" fill-rule="nonzero" stroke-width="2" stroke-miterlimit="10" stroke-dasharray="" stroke-dashoffset="0" style="mix-blend-mode: normal"><path d="M258.37636,156.80644c0.00189,0 -1.94221,-1.22728 -2.00462,-2.65627c-0.06152,-1.42722 1.28275,-1.65843 1.28275,-1.65843c9.25834,-2.38597 29.70576,-7.78826 32.09463,-9.60465c3.09914,-2.35685 14.84418,-9.71395 19.31482,-3.13229c4.47064,6.58947 -4.98765,17.3276 -20.7839,18.80361c-13.18865,1.22425 -21.22665,2.44851 -29.90369,-1.75197z" fill="#1b75bb" stroke="#000000" stroke-linecap="butt" stroke-linejoin="miter"/><path d="M311.46265,164.49132c-2.02605,-0.04589 -4.1556,-0.59403 -7.15716,-1.50904c0,0 -2.14317,-0.67901 -3.84837,-1.07701c-0.04287,-0.0097 -1.72071,-0.24482 -1.42999,-2.18413c0.23121,-1.54611 0.97161,-2.76354 3.16936,-2.76253c0.09367,0 0.35413,0.10917 0.35413,0.10917c1.49253,0.47024 4.1682,1.15113 7.36883,1.25261c4.93797,0.15696 9.77156,-0.2302 9.87204,2.00361c0.15317,3.39666 -4.85892,4.24346 -8.32883,4.16732z" fill="#1b75bb" stroke="#000000" stroke-linecap="butt" stroke-linejoin="miter"/><path d="M311.46265,173.61225c-2.02605,-0.0469 -4.1556,-0.59416 -7.15716,-1.51018c0,0 -2.14317,-0.67787 -3.84837,-1.07688c-0.04287,-0.0097 -1.72071,-0.24483 -1.42999,-2.18313c0.23121,-1.54623 0.97161,-2.76367 3.16936,-2.76266c0.09367,0 0.35413,0.1093 0.35413,0.1093c1.49253,0.47011 4.1682,1.15101 7.36883,1.25148c4.93797,0.15809 9.77156,-0.2302 9.87204,2.00474c0.15317,3.39666 -4.85892,4.24233 -8.32883,4.16732z" fill="#1b75bb" stroke="#000000" stroke-linecap="butt" stroke-linejoin="miter"/><g stroke="#000000" stroke-linecap="butt" stroke-linejoin="miter"><path d="M302.19838,159.06559c-0.00189,0 0.15418,2.21641 -0.07702,3.7615c-0.23121,1.54421 -0.69552,4.86095 -1.62023,6.79144c-0.92584,1.92948 -2.59777,4.00633 -2.59777,4.00633c-0.60185,0.7317 -1.18618,1.32284 -1.68667,1.75109c-2.8523,2.45039 -8.76579,3.8756 -8.76579,3.8756c-2.49237,0.52092 -4.38189,0.56088 -5.03253,0.55697c-0.03807,-0.20486 -1.8817,-0.17751 -1.91006,-0.31215c-0.19603,-0.9179 -1.49732,-0.20095 -10.03883,-4.08928c-4.68723,-2.13434 -5.99733,-0.84957 -8.79794,-2.12652c0,0 -2.7314,-3.43373 -2.72358,-11.07095c0.00201,-2.07673 0.59114,-6.2119 1.60473,-8.156c0.85739,-1.6438 2.27188,-1.38625 2.88066,-1.8662l7.20393,-0.85361l0.18835,-0.07993c2.98404,-0.44477 6.12604,-0.98812 8.26731,-1.56275c5.30181,-1.4271 18.96057,-5.50276 22.21969,5.09695c0.45851,1.48761 0.74241,2.91571 0.88576,4.2775z" fill="#1b75bb"/><path d="M291.77428,147.75384l0.17663,0.06341c2.62991,1.49442 3.29518,5.68808 3.29518,7.9698c0,4.5575 -7.15715,8.97935 -15.18066,8.97935c-8.02047,0 -13.5008,-2.5626 -14.52612,-8.2595c-0.46519,-2.60168 1.40479,-3.53131 2.3832,-4.64046l0.18141,-0.22137c3.65523,-0.49356 8.23807,-1.19601 11.07284,-1.96276c2.7899,-0.752 7.90537,-2.23973 12.59751,-1.92847z" fill="#d0d2d3"/></g><path d="M227.41609,120.75414c0.41073,-0.1151 10.44565,-2.85822 19.73917,4.07453c6.28994,4.69605 14.32806,12.87751 16.13172,33.78432c0.88084,10.23689 -1.75979,19.34886 -5.79537,25.89937c0.05951,-0.09657 0.12191,-0.18734 0.18041,-0.28491l-0.0566,0.09367c-2.74792,6.08608 -6.9992,13.80324 -14.11538,18.92754c0,0 5.75351,2.75774 5.99342,15.12203c0.30823,15.62455 -8.35316,21.93213 -14.88213,22.73985c-6.62263,0.82032 -14.21384,-1.20281 -16.45357,-14.4071c-1.8701,-11.05431 1.46908,-17.06337 2.60357,-18.72557l0.14724,-0.12885c-3.76831,-1.21832 -5.50377,-3.24928 -5.50377,-3.24928l-0.05951,0.16678c-1.74605,4.65306 -4.53506,10.77533 -8.99107,18.26707c-9.33058,15.68304 -25.79007,15.52797 -31.70835,11.18996c-6.11836,-4.49031 -13.80526,-17.79204 -3.34107,-36.58304c5.88412,-10.57437 14.94743,-15.92585 21.73975,-18.58602l-0.22239,-0.56189c-0.41754,-0.72477 -0.82915,-1.51496 -1.21832,-2.36076l-0.19314,-0.11018c-9.68282,4.12143 -29.59268,10.34316 -31.12907,-7.37085c-1.46126,-16.84678 18.83879,-15.39712 27.46994,-14.03835l0.02055,-0.13262c0.15304,-2.17632 0.47213,-4.38681 0.99103,-6.59628c-0.10148,0.04879 -5.37493,2.56159 -13.05691,-0.66526c-6.01296,-2.52856 -20.42888,-13.85404 -12.76922,-23.05388c8.08288,-9.70512 17.22523,-4.43661 22.83238,0.61458c4.85502,4.37609 6.83921,9.40963 7.71514,11.69323l0.04097,-0.06442c0.35312,-0.56188 0.72086,-1.12377 1.11306,-1.67873c10.87088,-15.44704 33.3775,-14.12232 33.3775,-14.12232l-0.15998,0.03417c-0.25163,0.05849 -0.398,0.10048 -0.43998,0.11321zM192.14907,138.79189c0.49267,-0.93354 1.02532,-1.84652 1.59401,-2.7343M188.29491,154.65546c1.0828,0.19894 2.15981,0.42623 3.23089,0.67497M196.62753,173.56043c-1.75588,0.92874 -3.56446,1.7608 -5.39346,2.53436M227.90965,208.71727c-2.16459,0.09859 -4.34961,-0.10338 -6.43718,-0.69653M217.60456,220.80849M249.20866,222.77995" fill="#1b75bb" stroke="#000000" stroke-linecap="round" stroke-linejoin="round"/><path d="M249.33347,222.70002c-1.20962,12.47851 -8.8321,17.68173 -14.72214,18.41053c-6.62263,0.82032 -14.21384,-1.20281 -16.45357,-14.4071c-0.32588,-1.92078 -0.49369,-3.68939 -0.54336,-5.30571l0.00782,-0.12494c10.18016,5.26386 22.15338,5.76133 31.58544,1.50715z" fill="#f1f1f2" stroke="#000000" stroke-linecap="butt" stroke-linejoin="miter"/><path d="M204.75831,225.47239c-9.50909,13.215 -24.51905,12.85117 -30.11346,8.75205c-5.82953,-4.2765 -13.08237,-16.56287 -4.69895,-33.96863l0.05748,0.1746c3.12751,9.99004 10.99481,18.63292 21.975,22.69005c4.2161,1.55493 8.52387,2.29633 12.73317,2.30806z" fill="#f1f1f2" stroke="#000000" stroke-linecap="butt" stroke-linejoin="miter"/><path d="M175.86708,180.40066c-7.65463,0.73549 -14.6997,-1.49934 -15.58735,-11.75172c-0.89547,-10.34417 6.41095,-13.79164 14.1837,-14.59532l-0.08005,0.07891c-3.35368,8.64489 -2.63382,18.08856 1.3628,26.22615z" fill="#f1f1f2" stroke="#000000" stroke-linecap="butt" stroke-linejoin="miter"/><path d="M161.62298,133.96132c-1.34326,-3.21815 -1.32082,-6.63435 1.31401,-9.7959c5.18078,-6.21593 10.79285,-6.29006 15.63325,-4.2093l0.00781,0.1054c-6.98747,2.53133 -13.03359,7.29469 -16.92003,13.91442z" fill="#f1f1f2" stroke="#000000" stroke-linecap="butt" stroke-linejoin="miter"/><path d="M213.73186,134.30272c6.19538,-8.50723 6.57195,-11.50892 13.6657,-13.54378c0,0 10.26903,-3.00938 19.75858,4.06886c6.29006,4.69693 14.32718,12.87751 16.13184,33.7842c1.79874,20.90392 -11.06994,37.14103 -20.57121,36.37819c-12.64731,-1.01359 -10.99582,-10.18028 -21.81691,-27.73039c-10.81541,-17.54809 -23.66254,-17.79103 -23.66254,-17.79103c0,0 12.17998,-9.25254 16.49454,-15.16603z" fill="#e6e7e8" stroke="#000000" stroke-linecap="butt" stroke-linejoin="miter"/><g stroke="none" stroke-linecap="butt" stroke-linejoin="miter"><path d="M231.78949,160.01164c0.66627,-0.14057 1.32473,0.2829 1.46806,0.95005c0.14637,0.67018 -0.29651,1.32863 -0.94626,1.46718c-0.32576,0.07211 -0.65455,0.01462 -0.92963,-0.16288c-0.27697,-0.18053 -0.47011,-0.45561 -0.54033,-0.7844c-0.01853,-0.08875 -0.02937,-0.17851 -0.02937,-0.26915c0,-0.57172 0.41073,-1.07701 0.97753,-1.20081z" fill="#ffffff"/><path d="M231.38166,158.11129c1.711,-0.36572 3.40447,0.72679 3.77612,2.44069c0.0479,0.22251 0.07224,0.44779 0.07224,0.67308c0,1.48862 -1.05646,2.79482 -2.50599,3.10305c-0.83016,0.18343 -1.68087,0.03227 -2.39202,-0.42725c-0.71493,-0.46141 -1.20761,-1.17256 -1.38802,-2.0036c-0.36585,-1.67003 0.75591,-3.42112 2.43766,-3.78596zM232.3123,162.42888c0.64975,-0.13754 1.09162,-0.797 0.94627,-1.46617c-0.14346,-0.66816 -0.80192,-1.09163 -1.46819,-0.95106c-0.56668,0.1238 -0.97741,0.6282 -0.97741,1.20081c0,0.08976 0.01072,0.17952 0.02925,0.26915c0.07022,0.32879 0.26247,0.60387 0.54046,0.7844c0.27508,0.1775 0.60387,0.23499 0.92963,0.16288z" fill="#231f20"/></g><g stroke="none" stroke-linecap="butt" stroke-linejoin="miter"><path d="M230.77056,136.98054c0.66539,-0.13956 1.32473,0.2829 1.4692,0.95018c0.14535,0.66917 -0.29663,1.32763 -0.94727,1.46706c-0.32576,0.07123 -0.65455,0.01462 -0.92963,-0.16288c-0.27697,-0.18141 -0.47024,-0.45649 -0.54046,-0.78427c-0.01942,-0.08976 -0.02925,-0.17952 -0.02925,-0.26928c0,-0.57261 0.41073,-1.07789 0.97741,-1.20081z" fill="#ffffff"/><path d="M230.36096,135.08031c1.71289,-0.36686 3.40637,0.72666 3.77701,2.44069c0.0469,0.22239 0.07123,0.44767 0.07123,0.67308c0,1.48862 -1.05544,2.7938 -2.50599,3.10305c-0.83016,0.18242 -1.68075,0.03215 -2.3919,-0.42724c-0.71506,-0.46141 -1.20862,-1.17256 -1.38814,-2.00474c-0.36585,-1.67003 0.75603,-3.421 2.43779,-3.78483zM231.29147,139.39878c0.65077,-0.13956 1.09365,-0.79889 0.94627,-1.46617c-0.14334,-0.66816 -0.80281,-1.09162 -1.46807,-0.95106c-0.5668,0.12292 -0.97753,0.62719 -0.97753,1.2008c0,0.08875 0.00983,0.17852 0.02937,0.26916c0.07022,0.32778 0.26336,0.60285 0.54033,0.78439c0.27508,0.1775 0.60387,0.23411 0.92963,0.16288z" fill="#231f20"/></g><path d="M248.09479,162.63084c0,0 -4.33902,-6.11924 -2.87385,-16.12781c1.45747,-10.00669 5.04236,-11.66688 5.04236,-11.66688" data-paper-data="{&quot;index&quot;:null}" fill="none" stroke="#231f20" stroke-linecap="round" stroke-linejoin="miter"/><path d="M274.92187,173.98927c-5.24318,8.0917 -12.74867,11.20749 -24.66429,16.99995c-14.26855,6.92986 -27.92454,2.65135 -27.51772,-5.29991c0.40972,-7.95025 14.27044,-7.7493 18.14226,-7.33958c2.98102,0.31315 23.26934,-5.66463 32.42342,-8.42528c0,0 1.26913,-0.50339 1.95873,0.75111c0.68682,1.2545 -0.3424,3.31182 -0.3424,3.31371z" data-paper-data="{&quot;index&quot;:null}" fill="#1b75bb" stroke="#000000" stroke-linecap="butt" stroke-linejoin="miter"/><path d="M224.91352,155.25601l-6.72364,10.08548" fill="none" stroke="#114b78" stroke-linecap="round" stroke-linejoin="miter"/><path d="M224.91352,146.43122l-8.19445,-8.19445" fill="none" stroke="#114b78" stroke-linecap="round" stroke-linejoin="miter"/><path d="M232.85714,193.97825c-4.49167,-0.71622 -7.14829,-2.34373 -9.69847,-6.10998c-2.55017,-3.76626 0.51516,-6.13686 2.18324,-7.18049c1.66808,-1.04363 5.28398,-2.67419 7.8829,-2.74155c2.59893,-0.06736 12.57188,-0.59337 12.57188,-0.59337l1.93678,14.70978c0,0 -10.84794,2.55796 -14.87633,1.91561z" data-paper-data="{&quot;index&quot;:null}" fill="#8e8e8e" stroke="#001026" stroke-linecap="butt" stroke-linejoin="miter"/><path d="M239.71583,185.49533l-8.57265,2.52137l-8.82479,-2.52137" fill="none" stroke="#001026" stroke-linecap="round" stroke-linejoin="miter"/></g></g></svg>