<svg version="1.1" xmlns="http://www.w3.org/2000/svg" xmlns:xlink="http://www.w3.org/1999/xlink" width="161.33635" height="132.46104" viewBox="0,0,161.33635,132.46104"><g transform="translate(-160.72856,-113.76948)"><g data-paper-data="{&quot;isPaintingLayer&quot;:true}" fill-rule="nonzero" stroke-miterlimit="10" stroke-dasharray="" stroke-dashoffset="0" style="mix-blend-mode: normal"><g><path d="M296.34228,194.29058l5.54607,5.51896l-6.22517,4.61595l8.365,6.65017l-17.95098,-1.43779l-1.42674,-24.91475l19.64209,3.86625z" data-paper-data="{&quot;index&quot;:null}" fill="#ff0000" stroke="none" stroke-width="NaN" stroke-linecap="butt" stroke-linejoin="miter"/><path d="M288.83173,211.69108l-58.20396,-5.45789l2.50767,-26.74237l58.20396,5.45789z" data-paper-data="{&quot;index&quot;:null}" fill="#0027ff" stroke="#000000" stroke-width="2" stroke-linecap="butt" stroke-linejoin="miter"/><path d="M291.22306,165.06881c0,0 9.42967,-6.8495 12.97704,-1.9771c1.91555,2.61614 -1.87416,6.24751 -3.24529,7.25078c-1.9905,1.45247 -2.46963,1.93124 -4.96532,2.24092c-2.49026,0.3086 -11.64718,1.53768 -14.96211,1.03924c-5.19463,-0.78399 -13.83983,-4.37287 -1.74164,-6.97586c0,0 6.85143,-0.82007 11.43103,-1.47335l0.50628,-0.10464v0v0v0v0v0v0v0v0v0v0v0v0v0v0v0v0v0v0v0v0v0v0v0v0v0v0v0v0v0v0v0v0v0v0v0v0zM289.32054,166.55085l1.90252,-1.48204" fill="#f05a28" stroke="#000000" stroke-width="2.5" stroke-linecap="round" stroke-linejoin="miter"/><g stroke-width="2.5"><path d="M280.38521,169.03576c3.11941,0.47116 11.24312,1.72631 12.84899,1.52452l-0.65521,0.29339c1.69493,-0.60199 4.10591,-1.2105 6.61247,-1.0174c4.86636,0.3751 7.47393,3.05665 8.86582,5.90608l0.15858,0.03271l9.71546,2.44489c-0.00109,-0.04683 0.0239,-0.46235 0.30534,-3.38709c0.3541,-3.70547 2.57825,-1.98036 2.57825,-1.98036l-0.12286,6.9073l-0.00434,0.35325l-0.24874,13.95738c-0.56602,0.17126 -2.31647,0.03488 -6.74389,-0.84952c-1.73947,-0.3413 -3.23563,-0.65751 -4.45904,-0.93352l-0.00869,-0.00217c-3.65164,4.71538 -9.30259,4.14936 -13.30084,2.71209c-2.55761,-0.91602 -21.86362,-6.14492 -21.86362,-6.14492c0,0 -7.41419,-2.27267 -4.83377,-11.6782c0,0 1.79486,-10.82651 11.15176,-8.13952c0.00326,0 0.00326,0.00109 0.00434,0.00109v0v0v0v0v0v0v0v0v0v0v0v0v0v0v0v0v0v0v0v0v0v0v0v0v0v0v0v0v0v0v0v0v0v0v0v0zM309.33064,182.80885c0,0 0.44546,-2.77207 -1.2712,-7.06541M293.23528,170.56137c-1.12131,0.24536 -3.10094,1.70556 -3.10094,1.70556M305.79945,191.44126c0,0 0.9801,0.31511 3.43114,0.84397" fill="#f05a28" stroke="#000000" stroke-linecap="round" stroke-linejoin="round"/><path d="M320.56604,179.55613c0,0.00869 0,0.01738 0,0.02293c-0.01412,0.30208 -0.2672,0.53537 -0.56602,0.52234c-0.2695,-0.01207 -0.47587,0.05998 -0.65195,0.2246c-0.73221,0.69359 -0.76492,2.795 -0.78447,4.05124c-0.00543,0.37727 -0.01086,0.71314 -0.02824,0.97709c-0.01195,0.16462 -0.09776,0.3162 -0.23244,0.40998c-0.13589,0.09377 -0.30643,0.12214 -0.46501,0.07531c-1.51463,-0.45041 -3.04651,-0.88657 -4.57743,-1.32286l-1.93402,-0.55178c-0.28893,-0.08279 -0.46066,-0.38161 -0.37268,-0.67392c0.08158,-0.29001 0.38354,-0.45692 0.6715,-0.3751l1.93076,0.55178c1.30813,0.37184 2.61843,0.74476 3.9157,1.1265c0.00109,-0.07519 0.00217,-0.15376 0.00434,-0.23341c0.02281,-1.61166 0.05757,-3.81891 1.12457,-4.8287c0.38994,-0.37075 0.87679,-0.54527 1.44173,-0.52234c0.29556,0.01521 0.52366,0.25622 0.52366,0.54635v0v0v0v0v0v0v0v0v0v0v0v0v0v0v0v0v0v0v0v0v0v0v0v0v0v0v0v0v0v0v0v0v0v0v0v0v0z" fill="#000000" stroke="none" stroke-linecap="butt" stroke-linejoin="miter"/></g><path d="M205.77116,224.16306c0,0 -4.14175,-1.01414 -12.94457,-9.64438c-8.79848,-8.62589 -11.8287,-17.96384 -14.35807,-24.1568c-2.52937,-6.19296 -15.16752,-10.351 -15.16752,-10.351c0,0 7.06661,-5.70224 13.49213,-11.56258c6.55273,-5.9803 12.29588,-19.90607 27.26028,-34.82847c1.79161,-1.78074 3.66685,-3.29441 5.59109,-4.56705l0.22496,-0.25839c2.88021,-3.33254 14.37098,-15.15472 31.10091,-13.6378c12.74677,1.15812 16.77447,6.97489 17.85547,9.79596l0.09341,0.02293c-2.86717,-1.45259 -5.91055,-2.31732 -8.99942,-2.72633c-10.21523,-1.34892 -16.85159,4.17663 -25.73696,7.71857c-11.52119,4.59216 -18.00319,17.15367 -17.68047,33.41848c0.61056,30.95609 17.94997,37.77384 17.94997,37.77384l0.22496,0.02293c10.62593,-5.74255 34.19522,-8.03597 41.2488,3.72297c7.58702,12.66615 4.93925,31.42062 -24.37669,38.72474c-26.82991,6.68584 -35.28286,-13.33355 -35.21334,-19.22225l-0.56494,-0.24536v0v0v0v0v0v0v0v0v0v0v0v0v0v0v0v0v0v0v0v0v0v0v0v0v0v0v0v0v0v0v0v0v0v0v0v0zM209.6445,129.05386c0,0 12.85647,-8.12202 28.74437,-5.47861M206.33501,224.40842c0.15327,-5.69464 4.21453,-9.51138 4.21453,-9.51138M224.67516,201.18405c-1.48965,0.9585 -2.71631,1.62699 -2.71631,1.62699" fill="#f05a28" stroke="#000000" stroke-width="2.5" stroke-linecap="round" stroke-linejoin="miter"/><path d="M254.55701,123.1969c0,0 -4.63174,-2.56268 -13.12379,-4.29225c-8.4964,-1.7274 -20.04908,0.57797 -20.04908,0.57797c5.17278,-2.86259 11.81132,-5.03158 19.58625,-4.33039c12.41862,1.12324 16.65378,6.90718 17.85547,9.79813l-4.26884,-1.75347v0v0v0v0v0v0v0v0v0v0v0v0v0v0v0v0v0v0v0v0v0v0v0v0v0v0v0v0v0v0v0v0v0v0v0v0z" fill="#404041" stroke="#000000" stroke-width="2.5" stroke-linecap="butt" stroke-linejoin="miter"/><g stroke="#231f20" stroke-width="2.5" stroke-linejoin="miter"><path d="M244.16147,242.96435v0v0v0v0v0v0v0v0v0v0v0v0v0v0v0v0v0v0v0v0v0v0v0v0v0v0v0v0v0v0v0v0v0v0v0v0v0c-5.03049,1.30644 -12.87506,2.4438 -18.97569,1.39587c-6.29409,-1.07738 -10.37285,-4.79274 -11.36152,-8.88211c-1.85907,-7.65641 9.13737,-16.91145 24.55483,-20.67919c14.53294,-3.54628 27.80458,-0.96067 30.84349,5.75896c0,0 0.28024,2.20061 -2.15017,6.64119c-2.42509,4.43719 -6.59183,8.27361 -9.2863,9.83844c-2.69133,1.56918 -8.58558,4.61714 -13.62465,5.92684z" fill="#404041" stroke-linecap="butt"/><path d="M231.34072,238.20758c-1.25708,-2.94538 3.7984,-7.94425 11.29635,-11.16673c7.49252,-3.2191 14.59268,-3.4449 15.84868,-0.50266c1.25491,2.94755 -3.80274,7.94425 -11.2984,11.16455c-7.49469,3.22453 -14.58954,3.44816 -15.84662,0.50484v0v0v0v0v0v0v0v0v0v0v0v0v0v0v0v0v0v0v0v0v0v0v0v0v0v0v0v0v0v0v0v0v0v0v0v0zM257.26137,225.25359c-7.65883,12.12849 -26.10964,11.99332 -26.10964,11.99332" fill="#929497" stroke-linecap="round"/></g><path d="M266.61827,205.91463v0v0v0v0v0v0v0v0v0v0v0v0v0v0v0v0v0v0v0v0v0v0v0v0v0v0v0v0v0v0v0v0v0v0v0v0v0l-0.08267,0.06541c-0.19551,-0.36206 -0.39972,-0.71978 -0.61056,-1.07303c-7.06227,-11.77415 -30.68599,-9.45683 -41.28694,-3.70112l-0.18682,-0.04695c0,0 -17.34158,-6.81788 -17.94997,-37.77928c-0.32272,-16.26493 6.15928,-28.82415 17.68047,-33.41739c8.88537,-3.54085 15.52173,-9.06749 25.73696,-7.71748c10.63027,1.41011 20.78467,8.22569 24.92425,25.78608c4.1537,17.56135 1.9275,16.85364 4.44818,22.74126c2.53371,5.88544 -0.0315,4.3042 -1.91012,11.84717c-2.82819,11.38927 -9.79692,21.87653 -10.76279,23.29533z" fill="#e6e7e8" stroke="#000000" stroke-width="2.5" stroke-linecap="round" stroke-linejoin="miter"/><path d="M250.76801,174.14692c0,0 -3.65381,-7.8407 -3.02153,-16.44258c0.62806,-8.59862 3.90919,-9.48302 3.90919,-9.48302" data-paper-data="{&quot;index&quot;:null}" fill="none" stroke="#231f20" stroke-width="2.5" stroke-linecap="round" stroke-linejoin="miter"/><path d="M227.94116,179.48424c0,-1.21291 0.4912,-2.31141 1.28351,-3.10758c0.79328,-0.79521 1.88767,-1.28822 3.09612,-1.28822c1.20844,0 2.30296,0.49301 3.09624,1.28822c0.79231,0.79618 1.28351,1.89467 1.28351,3.10758c0,1.21291 -0.4912,2.31141 -1.28351,3.10758c-0.79328,0.79521 -1.88779,1.28822 -3.09624,1.28822c-1.20844,0 -2.30284,-0.49301 -3.09612,-1.28822c-0.79231,-0.79618 -1.28351,-1.89467 -1.28351,-3.10758v0v0v0v0v0v0v0v0v0v0v0v0v0v0v0v0v0v0v0v0v0v0v0v0v0v0v0v0v0v0v0z" fill="#ffffff" stroke="#000000" stroke-width="2.5" stroke-linecap="butt" stroke-linejoin="miter"/><path d="M228.44402,147.62275c0,-1.21291 0.4912,-2.31141 1.28351,-3.10758c0.79328,-0.79521 1.88767,-1.28822 3.09612,-1.28822c1.20844,0 2.30296,0.49301 3.09624,1.28822c0.79231,0.79618 1.28351,1.89467 1.28351,3.10758c0,1.21291 -0.4912,2.31141 -1.28351,3.10758c-0.79328,0.79521 -1.88779,1.28822 -3.09624,1.28822c-1.20844,0 -2.30284,-0.49301 -3.09612,-1.28822c-0.79231,-0.79618 -1.28351,-1.89467 -1.28351,-3.10758v0v0v0v0v0v0v0v0v0v0v0v0v0v0v0v0v0v0v0v0v0v0v0v0v0v0v0v0v0v0v0z" fill="#ffffff" stroke="#000000" stroke-width="2.5" stroke-linecap="butt" stroke-linejoin="miter"/><path d="M273.32004,187.55204v0v0v0v0v0v0v0v0v0v0v0v0v0v0v0v0v0v0v0v0v0v0v0v0v0v0v0v0v0v0v0v0v0v0v0v0v0c0.00434,0.00217 3.8766,-2.11988 6.89813,-2.00981c3.01948,0.11127 4.58395,2.93343 4.58395,2.93343c-2.79114,3.17118 -10.86489,11.35874 -20.00129,11.66299c-11.34197,0.37944 -10.33145,-3.79176 -9.70351,-5.56598c1.17344,-3.29441 8.33347,-3.57464 12.45676,-3.45902l-0.10222,0.01629zM270.38975,191.60001c0,0 -1.08643,-0.48637 -2.83567,-0.48637" data-paper-data="{&quot;index&quot;:null}" fill="#f05a28" stroke="#000000" stroke-width="2.5" stroke-linecap="round" stroke-linejoin="miter"/><path d="M286.78865,188.59461l-2.11203,2.01146l-6.23552,-6.13494l8.34755,-3.41949z" fill="#f05a28" stroke="none" stroke-width="2.5" stroke-linecap="butt" stroke-linejoin="miter"/><path d="M216.2175,181.25516l9.25271,-12.26989" fill="none" stroke="#5e2310" stroke-width="2.5" stroke-linecap="round" stroke-linejoin="miter"/><path d="M215.21177,147.26153l9.45385,11.26416" fill="none" stroke="#5e2310" stroke-width="2.5" stroke-linecap="round" stroke-linejoin="miter"/></g></g></g></svg>