<svg version="1.1" xmlns="http://www.w3.org/2000/svg" xmlns:xlink="http://www.w3.org/1999/xlink" width="165.35573" height="152.52479" viewBox="0,0,165.35573,152.52479"><g transform="translate(-158.25067,-105.03217)"><g data-paper-data="{&quot;isPaintingLayer&quot;:true}" fill-rule="nonzero" stroke-miterlimit="10" stroke-dasharray="" stroke-dashoffset="0" style="mix-blend-mode: normal"><g><path d="M308.34228,149.29058l5.54607,5.51896l-6.22517,4.61595l8.365,6.65017l-17.95098,-1.43779l-1.42674,-24.91475l19.64209,3.86625z" data-paper-data="{&quot;index&quot;:null}" fill="#ff0000" stroke="none" stroke-width="NaN" stroke-linecap="butt" stroke-linejoin="miter"/><path d="M303.21935,165.85952l-58.41397,2.30172l-1.05756,-26.83886l58.41397,-2.30172z" data-paper-data="{&quot;index&quot;:null}" fill="#0027ff" stroke="#000000" stroke-width="2" stroke-linecap="butt" stroke-linejoin="miter"/><path d="M306.69179,171.59835c-0.5009,-1.71965 0,-3.83182 0,-3.83182c0,0 5.68353,-0.93527 7.73909,-1.22151c2.05854,-0.28734 5.27999,-1.3518 5.27999,-1.3518c0,0 0.32204,-0.53779 1.16292,-0.38768c0.8389,0.15507 1.0019,2.00281 1.44222,4.31774c0.43536,2.31207 0.06168,4.20353 -0.76632,4.56731c-0.82205,0.36686 -1.20664,-0.31708 -1.20664,-0.31708c0,0 -6.78785,-1.07745 -9.12371,-0.09637c0.00694,-0.00694 -3.89141,0.51587 -4.52755,-1.67879v0v0z" fill="#be1e2d" stroke="#231f20" stroke-width="2.5" stroke-linecap="round" stroke-linejoin="round"/><path d="M307.32793,179.01431v0v0v0v0v0v0c1.4224,-3.1002 4.27314,-3.43016 4.27809,-3.43413c2.45117,0.61621 8.1456,-1.34982 8.1456,-1.34982c0,0 0.26939,-0.7346 1.13913,-0.50497c0.87161,0.23459 1.53363,2.04169 1.46006,4.39737c-0.07853,2.35271 0.04571,4.20254 -0.76236,4.48581c-0.80806,0.28327 -1.20763,-0.19979 -1.20763,-0.19979c0,0 -1.94521,-0.05474 -4.02456,-0.01795c-2.07252,0.03877 -7.76497,0.37876 -7.76497,0.37876c0,0 -2.19566,-1.72461 -1.26336,-3.75528z" fill="#be1e2d" stroke="#231f20" stroke-width="2.5" stroke-linecap="round" stroke-linejoin="round"/><g stroke-width="2.5"><path d="M299.39907,167.05384v0v0v0v0v0v0c3.09326,-0.45816 8.79066,0.27831 10.7905,3.82092c1.97406,3.50671 1.70963,7.22509 -0.9204,11.07872c-2.18178,3.1937 -8.41389,3.11716 -11.90275,2.78312v0c0,0 -8.06807,-0.02082 -9.06204,-6.81164c-0.99397,-6.78885 5.19552,-9.94169 9.05807,-10.46747c0.68185,-0.16509 1.3746,-0.30419 2.03662,-0.40365z" fill="#be1e2d" stroke="#000000" stroke-linecap="butt" stroke-linejoin="miter"/><path d="M308.2633,168.92559v0v0v0v0v0v0l0.15705,0.01784c0.71962,0.51984 1.32988,1.16094 1.76525,1.93133c1.82891,3.24822 1.73749,6.6764 -0.37666,10.22694l-0.15904,0.03679c0,0 -10.26174,1.88254 -10.72001,-4.66081c-0.51488,-7.42983 7.61585,-7.59889 9.33341,-7.55208z" fill="#e6e7e8" stroke="#231f20" stroke-linecap="round" stroke-linejoin="round"/></g><path d="M300.44569,182.4644c0,0 -0.27027,1.21964 0.19483,2.36064c0.42843,1.05366 0.79815,1.7137 0.79815,1.7137c0.11928,0.13018 0.24549,0.23051 0.38371,0.26631l0.07952,-0.1282l0.84782,-1.17085c0,0 -0.70266,-1.75148 0.34792,-1.98398c0.59341,-0.13227 1.1421,0.34781 1.51183,0.7922c0.85586,-0.39263 1.78518,-0.45827 2.6688,0.22853c3.92918,3.05449 -2.42033,8.62667 -7.07013,8.19131c-1.60621,-0.14901 -3.28401,-3.03654 -4.54341,-5.83254c0,0 -2.02572,-4.45299 -2.02572,-5.51161" fill="#be1e2d" stroke="#000000" stroke-width="2.5" stroke-linecap="round" stroke-linejoin="miter"/><g stroke-width="2.5"><g stroke="#000000" stroke-linecap="round" stroke-linejoin="round"><path d="M266.09704,127.52267l1.71062,0.59043c8.6357,3.27509 13.60556,7.93095 13.60556,7.93095c0,0 -1.54167,-0.16708 -4.01861,-0.07754l-0.05077,0.14505c1.30411,0.4205 2.98588,1.10829 5.06336,2.25535c4.56224,2.50877 8.38713,9.88199 8.38713,9.88199c0,0 -1.56855,-0.45816 -4.13492,-0.7454l-0.39263,0.1043c0.61422,0.80013 1.18076,1.62912 1.73044,2.46505c0.163,0.24659 0.32204,0.49308 0.47611,0.74352c0.47413,0.76236 0.92646,1.5387 1.34783,2.3309c0.16498,0.31311 0.31807,0.64011 0.47611,0.9552c0.28922,0.57843 0.56158,1.1649 0.82701,1.76029c0.19086,0.43636 0.38272,0.87767 0.5596,1.32592c0.1869,0.46521 0.35486,0.94133 0.52975,1.41546c0.31212,0.87271 0.60332,1.75831 0.87172,2.66285c0.08745,0.29516 0.175,0.59143 0.2565,0.89055c0.17787,0.64517 0.35078,1.29618 0.50387,1.9582l0.00198,-0.00308c0.77337,3.32388 1.27834,6.84953 1.51183,10.62364c0.25056,4.08315 0.20981,7.78568 -0.03073,11.24271v0c-0.19086,2.73543 -0.51885,5.29596 -0.96324,7.72026c-0.02082,0.11729 -0.04273,0.23558 -0.06256,0.35386c-0.14318,0.74936 -0.29428,1.48694 -0.45629,2.21052c-0.05958,0.25243 -0.12225,0.49407 -0.18382,0.74551c-0.22765,0.96115 -0.4781,1.89554 -0.74551,2.81693c-0.16895,0.5824 -0.34197,1.16094 -0.52579,1.72648c-0.1054,0.33602 -0.21774,0.67293 -0.33008,1.0019c-0.31003,0.89859 -0.62513,1.78915 -0.96512,2.65294l0.14516,0.15011c2.33586,-0.326 3.59019,-1.1312 4.18954,-1.77428c1.22162,-1.31105 1.51183,-3.83469 1.51183,-3.83469c0,0 1.07944,7.7142 -4.87536,11.91465c-0.63416,0.44638 -1.29023,0.89661 -1.98794,1.32405l-0.39957,0.18382c-0.30518,0.91247 -0.7107,1.83695 -1.23252,2.74942c-3.2056,5.56414 -5.84961,6.26295 -5.84961,6.26295l0.96919,-0.1163c2.52562,-0.5357 4.12093,-1.05862 4.12093,-1.05862c0,0 -4.21443,6.65966 -10.53003,9.62571c-5.10113,2.39148 -8.18635,2.58135 -8.70817,2.59721l-1.8528,0.22368c-7.26397,0.14406 -15.40957,-0.30717 -23.42389,-1.3051l-0.21377,-0.06168c-6.19533,-0.88956 -16.46015,-0.02687 -26.96143,-8.24693c-19.67566,-15.40561 -18.99172,-31.14217 -33.53254,-40.55399c-10.6971,-6.922 -22.96474,-5.14387 -22.96474,-5.14387c0,0 6.01063,-4.24516 9.54013,-5.94091c3.44018,-1.63804 7.87423,-3.39139 7.87423,-3.39139l-0.03778,-0.05672c-0.12919,-0.03877 -0.26135,-0.07357 -0.39351,-0.10331c-2.05854,-0.46323 -5.10212,-0.2793 -5.10212,-0.2793c0,0 11.86211,-4.04747 19.63887,-10.5819c7.77092,-6.52838 9.99444,-15.96707 36.61391,-27.8858c3.30791,-1.48297 6.09202,-2.86164 9.17636,-3.59911l1.77626,-0.33404c5.55026,-1.04067 20.88527,-0.63317 27.51002,1.55159v0v0v0v0v0zM240.02627,203.86059c0,0 8.01928,7.71916 19.17564,7.21033c9.87208,-0.45034 12.92162,-3.00878 13.68496,-4.38746c0.78031,-1.41733 0.31807,-3.61508 0.31807,-3.61508c0,0 3.29205,6.21636 -1.17481,11.28357c-2.98588,3.38941 -6.83753,7.07806 -17.70468,8.1108M257.80639,139.62532c0,0 2.74633,-0.95928 8.4835,1.37955c6.46483,2.63003 8.46565,8.17941 8.46565,8.17941c0,0 -9.96052,-4.61202 -19.32378,-0.74154c-4.0902,1.68782 -7.13864,6.90019 -9.28958,12.3412c-2.92035,7.37322 -4.19263,15.16595 -4.19263,15.16595M277.23359,136.07776c1.31997,0.41554 3.04348,1.11226 5.17558,2.29313c4.56323,2.50877 8.38713,9.88309 8.38713,9.88309c0,0 -4.57623,-1.33396 -10.87707,-0.87976M262.33394,220.89036c1.40544,0.7574 2.91231,1.3398 4.50266,1.6658c9.92186,2.04763 20.85146,-1.55555 20.85146,-1.55555c0,0 -4.21234,6.65767 -10.53003,9.6256c-5.60798,2.63113 -8.78273,2.59732 -8.78273,2.59732M267.81273,128.11608c8.63559,3.27718 13.60545,7.93095 13.60545,7.93095c0,0 -8.75894,-0.96126 -18.12308,2.91726c-0.42347,0.17688 -0.83494,0.3727 -1.23451,0.58251M241.94956,175.94693c0,0 0.35089,-1.31997 3.1231,-4.80289c2.7721,-3.48281 5.79675,-4.76412 5.79675,-4.76412c0,0 -2.70955,10.28564 -4.75608,15.97809c-2.04863,5.68749 -7.27586,24.8801 -7.27586,24.8801M283.18342,208.51337c4.37942,-2.78807 6.76197,-5.68848 6.76197,-5.68848c0,0 2.11217,6.82167 -1.49487,13.08858c-3.2056,5.56425 -5.8495,6.26306 -5.8495,6.26306M286.27073,147.61387c5.65566,7.35131 8.42788,16.27226 9.09585,27.11849c0.79716,12.9345 -1.09342,22.38719 -4.26322,30.46814M290.52592,205.43013c2.80096,-0.2445 4.2532,-1.14508 4.90917,-1.85181c1.22162,-1.31204 1.51084,-3.83568 1.51084,-3.83568c0,0 1.08252,7.71618 -4.87337,11.91564c-0.63614,0.44638 -1.28924,0.89661 -1.98794,1.32405M242.28151,175.20142c0,0 3.43622,-28.17105 18.81297,-28.17105" fill="#be1e2d"/><path d="M267.74213,141.50985c11.05791,1.05058 22.5949,13.7625 23.68227,32.36566c0.96919,16.42237 -6.41604,40.6932 -20.01554,44.21478c-1.36667,0.3499 -2.68675,0.53581 -3.95595,0.58647l0.26333,-0.35684c1.82494,-1.2464 3.13797,-2.62904 4.31785,-3.96795c4.46488,-5.06721 1.17283,-11.28357 1.17283,-11.28357c0,0 0.46422,2.19775 -0.3151,3.61508c-0.76434,1.37867 -3.81387,3.93711 -13.68595,4.38746c-11.15934,0.50882 -19.17564,-7.21033 -19.17564,-7.21033l-0.2565,-0.02676c1.60037,-5.77703 4.83174,-17.28616 6.3396,-21.47384c2.04951,-5.69344 4.75608,-15.97699 4.75608,-15.97699c0,0 -3.02464,1.2812 -5.79675,4.76401c-1.38759,1.74344 -2.16691,2.94314 -2.60128,3.7066l0.11234,-0.71665c0,0 3.20956,-21.72032 12.84805,-25.69818c9.36524,-3.87048 19.32378,0.73857 19.32378,0.73857c0,0 -1.70566,-4.72535 -7.04326,-7.5164l0.02985,-0.15111v0v0v0v0v0z" fill="#e6e7e8"/></g><g stroke="#000000" stroke-linecap="round" stroke-linejoin="miter"><path d="M247.55655,133.83144c0,0 -11.20802,-10.00733 -11.73975,-10.56494c-0.52876,-0.55861 -5.60203,-4.69551 -7.33457,-16.61621c0,0 34.04654,7.65561 41.83531,25.49135c-0.00099,0.00099 -9.74289,-1.69564 -22.76099,1.6898v0v0zM247.8299,133.76382c-1.07547,0.2565 -2.97696,1.03472 -2.97696,1.03472M272.92763,132.99749c0,0 -1.63309,-0.68383 -2.61109,-0.85289" fill="#be1e2d"/><path d="M264.96595,125.03384c0,0 -1.37273,1.78816 -5.88827,1.99389c-2.80107,0.13216 -7.90903,-1.09838 -7.90903,-1.09838l0.163,0.10143c-0.90256,-0.78031 -1.9571,-1.60335 -3.11407,-2.34874c-1.9571,-1.26336 -4.89232,-2.74138 -7.78579,-4.09615l-0.39858,-0.20981c0,0 -5.23924,-3.58226 -5.90226,-11.00725l0.04681,-0.08546c5.17558,1.56458 12.76655,4.11608 17.95204,6.94193c5.81767,3.16881 10.04213,6.83753 12.94254,9.94367l-0.10639,-0.13514v0v0v0v0v0zM254.24991,129.02161c0,0 -2.54655,-2.60525 -3.08125,-3.09227" fill="#929497"/></g><g stroke="#000000" stroke-linecap="round" stroke-linejoin="miter"><path d="M270.31654,230.44834c-7.78876,17.83277 -41.83432,25.49036 -41.83432,25.49036c1.73353,-11.92269 6.8068,-16.05959 7.33457,-16.61621c0.52975,-0.55662 11.73876,-10.56593 11.73876,-10.56593c13.01909,3.38853 22.76099,1.69179 22.76099,1.69179v0v0v0v0v0zM244.85295,227.79243c0,0 1.90148,0.77733 2.97696,1.03472M270.31654,230.44834c0.978,-0.16994 2.61109,-0.85487 2.61109,-0.85487" fill="#be1e2d"/><path d="M265.07333,237.42496c-2.90239,3.10625 -7.12685,6.77299 -12.94254,9.94367c-5.1855,2.82695 -12.77646,5.37746 -17.95204,6.94193l-0.04681,-0.08546c0.66401,-7.42598 5.90226,-11.00725 5.90226,-11.00725l0.39858,-0.2097c2.89446,-1.35477 5.82968,-2.83279 7.78579,-4.09615c1.15697,-0.74551 2.21152,-1.56855 3.11407,-2.34874l-0.163,0.09934c0,0 5.10796,-1.23054 7.90903,-1.09827c4.51554,0.20573 5.88827,1.99191 5.88827,1.99191l0.10639,-0.13128v0v0zM251.16865,236.66162c0.53372,-0.48702 3.08125,-3.09227 3.08125,-3.09227" fill="#929497"/></g><path d="M282.12084,190.52949c0,0 -7.72411,-6.11493 -7.72411,-15.12322c0,-9.00741 5.79289,-15.12333 5.79289,-15.12333" fill="none" stroke="#231f20" stroke-linecap="round" stroke-linejoin="miter"/><path d="M261.35087,153.45842v0v0v0v0v0v0c0.88659,0.17489 1.41645,0.70663 1.73551,1.14397c0.2793,-0.11135 0.58636,-0.16697 0.90047,-0.08943c0.79815,0.19483 1.29123,0.98802 1.09144,1.80203c-0.76434,3.09623 -1.04067,7.10692 -0.21972,7.91101c0.29527,0.29131 0.44329,0.67491 0.44329,1.06159c0,0.37876 -0.14406,0.75542 -0.43129,1.04662c-0.57656,0.58647 -1.51987,0.59737 -2.10821,0.01894c-1.58242,-1.55852 -1.54167,-4.84463 -1.19585,-7.47565c-0.11025,-0.1282 -0.33591,-0.33206 -0.64704,-0.35089c-0.54671,-0.03084 -1.00289,-0.45618 -0.94122,-1.04562c0.02775,-0.54473 0.49297,-0.96622 1.04265,-0.93835c0.34582,0.01894 0.63713,0.10441 0.90443,0.21168c0.02588,-0.13018 0.05077,-0.25441 0.07754,-0.37072c-0.15904,-0.10639 -0.30012,-0.2336 -0.38162,-0.41939c-0.01597,-0.03084 -0.2336,-0.46918 -0.65905,-0.55662c-0.53768,-0.10738 -0.8965,-0.62326 -0.7802,-1.16898c0.10925,-0.53768 0.62909,-0.88361 1.16887,-0.7802z" fill="#231f20" stroke="none" stroke-linecap="butt" stroke-linejoin="miter"/><path d="M262.57547,189.02956v0v0v0v0v0v0c0.22159,-0.7922 1.04265,-1.25235 1.83684,-1.02877c0.79419,0.2217 1.25444,1.03869 1.0367,1.83684c-0.01487,0.04582 -1.27129,4.67072 0.0467,9.19233c0.03976,0.1391 0.06068,0.27633 0.06068,0.41543c0,0.64506 -0.42545,1.24244 -1.07547,1.43132c-0.37876,0.11333 -0.7694,0.05771 -1.09739,-0.11333c-0.2445,0.27831 -0.56059,0.54374 -0.99595,0.72667c-0.50497,0.21366 -1.08935,-0.02192 -1.30411,-0.52986c-0.20772,-0.5009 0.01894,-1.08737 0.52788,-1.30312c0.40552,-0.17093 0.52182,-0.66588 0.5238,-0.67182c0.03282,-0.14615 0.09934,-0.27435 0.18679,-0.3847c-0.02974,-0.14714 -0.06256,-0.29527 -0.08745,-0.44032c-0.23062,0.15309 -0.48999,0.29516 -0.80707,0.38063c-0.53272,0.1402 -1.07349,-0.17489 -1.21666,-0.70663c-0.14604,-0.53581 0.17798,-1.07547 0.70674,-1.21567c0.42446,-0.11234 0.61533,-0.57447 0.61731,-0.57854c0.07357,-0.21564 0.22258,-0.37468 0.39957,-0.49098c-0.16597,-3.56034 0.59638,-6.36042 0.6411,-6.51945z" fill="#231f20" stroke="none" stroke-linecap="butt" stroke-linejoin="miter"/></g><path d="M295.60378,168.51897c0,0 0.27027,-1.21953 -0.19483,-2.36064c-0.42843,-1.05465 -0.79815,-1.71459 -0.79815,-1.71459c-0.11928,-0.13029 -0.24549,-0.23161 -0.38371,-0.26642l-0.07952,0.1282l-19.4328,0.22438c0,0 0.97597,1.75137 -0.07461,1.98398c-0.59341,0.13216 -1.54907,-0.89453 -1.91979,-1.33881c-0.21488,0.09858 -2.12177,-0.88162 -2.40766,-2.16311c-0.2798,-1.2542 1.32782,-2.80858 1.55353,-2.86747c0.90686,-0.23663 20.56304,-2.21565 23.9751,-1.89617c1.60621,0.14912 3.28401,3.03753 4.54341,5.83265c0,0 2.02572,4.45398 2.02572,5.5115" data-paper-data="{&quot;index&quot;:null}" fill="#be1e2d" stroke="#000000" stroke-width="2.5" stroke-linecap="round" stroke-linejoin="miter"/><path d="M249.16401,195.66793l11.75494,-11.75494" fill="none" stroke="#69111a" stroke-width="2.5" stroke-linecap="round" stroke-linejoin="miter"/><path d="M259.83053,168.6751l-8.05431,-10.66652" fill="none" stroke="#69111a" stroke-width="2.5" stroke-linecap="round" stroke-linejoin="miter"/></g></g></g></svg>