<svg version="1.1" xmlns="http://www.w3.org/2000/svg" xmlns:xlink="http://www.w3.org/1999/xlink" width="238.23864" height="93.47641" viewBox="0,0,238.23864,93.47641"><g transform="translate(-120.88068,-133.26179)"><g data-paper-data="{&quot;isPaintingLayer&quot;:true}" fill-rule="nonzero" stroke-linecap="butt" stroke-linejoin="miter" stroke-miterlimit="10" stroke-dasharray="" stroke-dashoffset="0" style="mix-blend-mode: normal"><path d="M122.38068,221.01598c0,-16.57901 0,-76.66382 0,-83.84147c0,-1.38004 1.38027,-2.41272 3.40478,-2.41272c15.45928,0 200.83722,0 228.41304,0c2.22329,0 3.42082,1.41312 3.42082,3.88003c0,15.59859 0,73.32959 0,82.34675c0,2.3184 -2.18806,4.24963 -4.02399,4.24963c-25.34187,0 -212.2327,0 -227.80987,0c-2.02451,0 -3.40478,-1.54303 -3.40478,-4.22222z" fill="#c0c0c0" stroke="#000000" stroke-width="3"/><g stroke="none" stroke-width="1" font-family="Pixel" font-weight="normal" font-size="40" text-anchor="start"><text transform="translate(169.94259,198.75324) scale(1.24257,1.24257)" font-size="40" xml:space="preserve" fill="#333333" fill-rule="nonzero" stroke="none" stroke-width="1" stroke-linecap="butt" stroke-linejoin="miter" stroke-miterlimit="10" stroke-dasharray="" stroke-dashoffset="0" font-family="Pixel" font-weight="normal" text-anchor="start" style="mix-blend-mode: normal"><tspan x="0" dy="0">MENU</tspan></text><text transform="translate(167.16163,198.67183) scale(1.23578,1.23578)" font-size="40" xml:space="preserve" fill="#000000" fill-rule="nonzero" stroke="none" stroke-width="1" stroke-linecap="butt" stroke-linejoin="miter" stroke-miterlimit="10" stroke-dasharray="" stroke-dashoffset="0" font-family="Pixel" font-weight="normal" text-anchor="start" style="mix-blend-mode: normal"><tspan x="0" dy="0">MENU</tspan></text></g></g></g></svg>