<svg version="1.1" xmlns="http://www.w3.org/2000/svg" xmlns:xlink="http://www.w3.org/1999/xlink" width="235.26587" height="92.33302" viewBox="0,0,235.26587,92.33302"><g transform="translate(-122.36707,-133.83348)"><g data-paper-data="{&quot;isPaintingLayer&quot;:true}" fill-rule="nonzero" stroke-linecap="butt" stroke-linejoin="miter" stroke-miterlimit="10" stroke-dasharray="" stroke-dashoffset="0" style="mix-blend-mode: normal"><path d="M123.86707,220.49765c0,-16.36949 0,-75.695 0,-82.78194c0,-1.3626 1.36283,-2.38223 3.36176,-2.38223c15.26392,0 198.29919,0 225.52652,0c2.1952,0 3.37759,1.39526 3.37759,3.83099c0,15.40147 0,72.40291 0,81.30611c0,2.28911 -2.16041,4.19592 -3.97314,4.19592c-25.02162,0 -209.55066,0 -224.93097,0c-1.99893,0 -3.36176,-1.52353 -3.36176,-4.16886z" fill="#bebebe" stroke="#000000" stroke-width="3"/><text transform="translate(129.08946,190.29626) scale(0.85803,0.85803)" font-size="40" xml:space="preserve" fill="#333333" fill-rule="nonzero" stroke="none" stroke-width="1" stroke-linecap="butt" stroke-linejoin="miter" stroke-miterlimit="10" stroke-dasharray="" stroke-dashoffset="0" font-family="Pixel" font-weight="normal" text-anchor="start" style="mix-blend-mode: normal"><tspan x="0" dy="0">PLAY AGAIN</tspan></text><text transform="translate(127.16915,190.24005) scale(0.85333,0.85333)" font-size="40" xml:space="preserve" fill="#000000" fill-rule="nonzero" stroke="none" stroke-width="1" stroke-linecap="butt" stroke-linejoin="miter" stroke-miterlimit="10" stroke-dasharray="" stroke-dashoffset="0" font-family="Pixel" font-weight="normal" text-anchor="start" style="mix-blend-mode: normal"><tspan x="0" dy="0">PLAY AGAIN</tspan></text></g></g></svg>