<svg version="1.1" xmlns="http://www.w3.org/2000/svg" xmlns:xlink="http://www.w3.org/1999/xlink" width="31.92814" height="36.9317" viewBox="0,0,31.92814,36.9317"><g transform="translate(-224.03595,-161.66145)"><g data-paper-data="{&quot;isPaintingLayer&quot;:true}" fill="#666666" fill-rule="nonzero" stroke="#000000" stroke-width="1.5" stroke-linecap="butt" stroke-linejoin="miter" stroke-miterlimit="10" stroke-dasharray="" stroke-dashoffset="0" style="mix-blend-mode: normal"><path d="M224.78595,182.62909c0,-0.19337 0.02397,-0.57798 0.02397,-0.57798l5.36319,0.03498c0,0 -0.05399,0.5073 0.01502,0.52078c-0.00008,0.01693 -0.00013,0.03387 -0.00013,0.05082c0,5.41564 4.39025,9.80589 9.80589,9.80589c5.41564,0 9.80589,-4.39025 9.80589,-9.80589c0,-5.41564 -4.39024,-9.80589 -9.80589,-9.80589c-0.22119,0 -0.55496,0.02174 -0.55496,0.02174c0,0 -0.00744,3.24049 0.00871,5.28327c0.00605,0.76437 -0.56879,0.17181 -0.73807,-0.02722c-1.77202,-2.08338 -11.45029,-8.03356 -11.45029,-8.03356c0,0 9.6881,-6.27085 11.80286,-7.83105c0.25898,-0.19106 0.40624,-0.1739 0.40723,0.42335c0.00254,1.54105 0.00521,4.73561 0.00521,4.73561c0,0 0.34959,-0.00891 0.52545,-0.00891c8.4025,0 15.21406,6.81157 15.21406,15.21406c0,8.4025 -6.81157,15.21406 -15.21406,15.21406c-8.4025,0 -15.21406,-6.81157 -15.21406,-15.21406z"/></g></g></svg>