<svg version="1.1" xmlns="http://www.w3.org/2000/svg" xmlns:xlink="http://www.w3.org/1999/xlink" width="197.99999" height="78" viewBox="0,0,197.99999,78"><g transform="translate(-141,-141)"><g data-paper-data="{&quot;isPaintingLayer&quot;:true}" fill-rule="nonzero" stroke-linecap="butt" stroke-linejoin="miter" stroke-miterlimit="10" stroke-dasharray="" stroke-dashoffset="0" style="mix-blend-mode: normal"><path d="M142.5,214.00001c0,-13.74309 0,-63.55012 0,-69.5c0,-1.14398 1.14417,-2.00001 2.82238,-2.00001c12.8149,0 166.48309,0 189.34194,0c1.84299,0 2.83567,1.1714 2.83567,3.21633c0,12.93038 0,60.78623 0,68.26096c0,1.92183 -1.81378,3.52271 -3.33567,3.52271c-21.00703,0 -175.92932,0 -188.84194,0c-1.67821,0 -2.82238,-1.27909 -2.82238,-3.49999z" fill="#b8b8b8" stroke="#000000" stroke-width="3"/><text transform="translate(160.40449,197.75017) scale(1.10965,1.10965)" font-size="40" xml:space="preserve" fill="#333333" fill-rule="nonzero" stroke="none" stroke-width="1" stroke-linecap="butt" stroke-linejoin="miter" stroke-miterlimit="10" stroke-dasharray="" stroke-dashoffset="0" font-family="Pixel" font-weight="normal" text-anchor="start" style="mix-blend-mode: normal"><tspan x="0" dy="0">START</tspan></text><text transform="translate(157.83818,197.58023) scale(1.10965,1.10965)" font-size="40" xml:space="preserve" fill="#000000" fill-rule="nonzero" stroke="none" stroke-width="1" stroke-linecap="butt" stroke-linejoin="miter" stroke-miterlimit="10" stroke-dasharray="" stroke-dashoffset="0" font-family="Pixel" font-weight="normal" text-anchor="start" style="mix-blend-mode: normal"><tspan x="0" dy="0">START</tspan></text></g></g></svg>